<?xml version="1.0" ?>
<svg xmlns="http://www.w3.org/2000/svg" width="934" height="368" version="1.1">
	<rect x="0" y="0" width="934" height="368" fill="white"/>
	<text x="1.0" y="16.0" fill="black">T7</text>
	<text x="1.0" y="56.0" fill="black">T6</text>
	<text x="1.0" y="96.0" fill="black">T5</text>
	<text x="1.0" y="136.0" fill="black">T4</text>
	<text x="1.0" y="176.0" fill="black">T3</text>
	<text x="1.0" y="216.0" fill="black">T2</text>
	<text x="1.0" y="256.0" fill="black">T1</text>
	<rect x="71.0" y="241.0" width="20.0" height="30.0" fill="none" stroke="black"/>
	<rect x="71.0" y="241.0" width="20.0" height="30.0" fill="#448109" stroke="black"/>
	<rect x="91.0" y="241.0" width="20.0" height="30.0" fill="#448109" stroke="black"/>
	<rect x="151.0" y="161.0" width="20.0" height="30.0" fill="none" stroke="black"/>
	<rect x="151.0" y="161.0" width="20.0" height="30.0" fill="#4c9477" stroke="black"/>
	<rect x="171.0" y="121.0" width="20.0" height="30.0" fill="none" stroke="black"/>
	<rect x="171.0" y="81.0" width="20.0" height="30.0" fill="none" stroke="black"/>
	<rect x="171.0" y="161.0" width="20.0" height="30.0" fill="#4c9477" stroke="black"/>
	<rect x="191.0" y="121.0" width="20.0" height="30.0" fill="none" stroke="black"/>
	<rect x="191.0" y="81.0" width="20.0" height="30.0" fill="none" stroke="black"/>
	<rect x="191.0" y="161.0" width="20.0" height="30.0" fill="#4c9477" stroke="black"/>
	<rect x="211.0" y="121.0" width="20.0" height="30.0" fill="none" stroke="black"/>
	<rect x="211.0" y="81.0" width="20.0" height="30.0" fill="none" stroke="black"/>
	<rect x="211.0" y="161.0" width="20.0" height="30.0" fill="#4c9477" stroke="black"/>
	<rect x="231.0" y="121.0" width="20.0" height="30.0" fill="none" stroke="black"/>
	<rect x="231.0" y="81.0" width="20.0" height="30.0" fill="none" stroke="black"/>
	<rect x="231.0" y="161.0" width="20.0" height="30.0" fill="#4c9477" stroke="black"/>
	<rect x="251.0" y="121.0" width="20.0" height="30.0" fill="none" stroke="black"/>
	<rect x="251.0" y="81.0" width="20.0" height="30.0" fill="none" stroke="black"/>
	<rect x="251.0" y="41.0" width="20.0" height="30.0" fill="none" stroke="black"/>
	<rect x="251.0" y="1.0" width="20.0" height="30.0" fill="none" stroke="black"/>
	<rect x="251.0" y="41.0" width="20.0" height="30.0" fill="#00fd90" stroke="black"/>
	<rect x="271.0" y="161.0" width="20.0" height="30.0" fill="none" stroke="black"/>
	<rect x="271.0" y="121.0" width="20.0" height="30.0" fill="none" stroke="black"/>
	<rect x="271.0" y="81.0" width="20.0" height="30.0" fill="none" stroke="black"/>
	<rect x="271.0" y="1.0" width="20.0" height="30.0" fill="none" stroke="black"/>
	<rect x="271.0" y="41.0" width="20.0" height="30.0" fill="#00fd90" stroke="black"/>
	<rect x="291.0" y="161.0" width="20.0" height="30.0" fill="none" stroke="black"/>
	<rect x="291.0" y="121.0" width="20.0" height="30.0" fill="none" stroke="black"/>
	<rect x="291.0" y="81.0" width="20.0" height="30.0" fill="none" stroke="black"/>
	<rect x="291.0" y="1.0" width="20.0" height="30.0" fill="none" stroke="black"/>
	<rect x="291.0" y="41.0" width="20.0" height="30.0" fill="#00fd90" stroke="black"/>
	<rect x="311.0" y="161.0" width="20.0" height="30.0" fill="none" stroke="black"/>
	<rect x="311.0" y="121.0" width="20.0" height="30.0" fill="none" stroke="black"/>
	<rect x="311.0" y="81.0" width="20.0" height="30.0" fill="none" stroke="black"/>
	<rect x="311.0" y="1.0" width="20.0" height="30.0" fill="none" stroke="black"/>
	<rect x="311.0" y="41.0" width="20.0" height="30.0" fill="#00fd90" stroke="black"/>
	<rect x="331.0" y="161.0" width="20.0" height="30.0" fill="none" stroke="black"/>
	<rect x="331.0" y="121.0" width="20.0" height="30.0" fill="none" stroke="black"/>
	<rect x="331.0" y="81.0" width="20.0" height="30.0" fill="none" stroke="black"/>
	<rect x="331.0" y="1.0" width="20.0" height="30.0" fill="none" stroke="black"/>
	<rect x="331.0" y="41.0" width="20.0" height="30.0" fill="#00fd90" stroke="black"/>
	<rect x="351.0" y="161.0" width="20.0" height="30.0" fill="none" stroke="black"/>
	<rect x="351.0" y="121.0" width="20.0" height="30.0" fill="none" stroke="black"/>
	<rect x="351.0" y="81.0" width="20.0" height="30.0" fill="none" stroke="black"/>
	<rect x="351.0" y="1.0" width="20.0" height="30.0" fill="none" stroke="black"/>
	<rect x="351.0" y="161.0" width="20.0" height="30.0" fill="#4c9477" stroke="black"/>
	<rect x="371.0" y="121.0" width="20.0" height="30.0" fill="none" stroke="black"/>
	<rect x="371.0" y="81.0" width="20.0" height="30.0" fill="none" stroke="black"/>
	<rect x="371.0" y="1.0" width="20.0" height="30.0" fill="none" stroke="black"/>
	<rect x="371.0" y="201.0" width="20.0" height="30.0" fill="none" stroke="black"/>
	<rect x="371.0" y="201.0" width="20.0" height="30.0" fill="#ba9bb4" stroke="black"/>
	<rect x="391.0" y="161.0" width="20.0" height="30.0" fill="none" stroke="black"/>
	<rect x="391.0" y="121.0" width="20.0" height="30.0" fill="none" stroke="black"/>
	<rect x="391.0" y="81.0" width="20.0" height="30.0" fill="none" stroke="black"/>
	<rect x="391.0" y="1.0" width="20.0" height="30.0" fill="none" stroke="black"/>
	<rect x="391.0" y="201.0" width="20.0" height="30.0" fill="#ba9bb4" stroke="black"/>
	<rect x="411.0" y="161.0" width="20.0" height="30.0" fill="none" stroke="black"/>
	<rect x="411.0" y="121.0" width="20.0" height="30.0" fill="none" stroke="black"/>
	<rect x="411.0" y="81.0" width="20.0" height="30.0" fill="none" stroke="black"/>
	<rect x="411.0" y="1.0" width="20.0" height="30.0" fill="none" stroke="black"/>
	<rect x="411.0" y="201.0" width="20.0" height="30.0" fill="#ba9bb4" stroke="black"/>
	<rect x="431.0" y="161.0" width="20.0" height="30.0" fill="none" stroke="black"/>
	<rect x="431.0" y="121.0" width="20.0" height="30.0" fill="none" stroke="black"/>
	<rect x="431.0" y="81.0" width="20.0" height="30.0" fill="none" stroke="black"/>
	<rect x="431.0" y="1.0" width="20.0" height="30.0" fill="none" stroke="black"/>
	<rect x="431.0" y="201.0" width="20.0" height="30.0" fill="#ba9bb4" stroke="black"/>
	<rect x="451.0" y="161.0" width="20.0" height="30.0" fill="none" stroke="black"/>
	<rect x="451.0" y="121.0" width="20.0" height="30.0" fill="none" stroke="black"/>
	<rect x="451.0" y="81.0" width="20.0" height="30.0" fill="none" stroke="black"/>
	<rect x="451.0" y="1.0" width="20.0" height="30.0" fill="none" stroke="black"/>
	<rect x="451.0" y="201.0" width="20.0" height="30.0" fill="#ba9bb4" stroke="black"/>
	<rect x="471.0" y="161.0" width="20.0" height="30.0" fill="none" stroke="black"/>
	<rect x="471.0" y="121.0" width="20.0" height="30.0" fill="none" stroke="black"/>
	<rect x="471.0" y="81.0" width="20.0" height="30.0" fill="none" stroke="black"/>
	<rect x="471.0" y="1.0" width="20.0" height="30.0" fill="none" stroke="black"/>
	<rect x="471.0" y="161.0" width="20.0" height="30.0" fill="#4c9477" stroke="black"/>
	<rect x="491.0" y="121.0" width="20.0" height="30.0" fill="none" stroke="black"/>
	<rect x="491.0" y="81.0" width="20.0" height="30.0" fill="none" stroke="black"/>
	<rect x="491.0" y="1.0" width="20.0" height="30.0" fill="none" stroke="black"/>
	<rect x="491.0" y="161.0" width="20.0" height="30.0" fill="#4c9477" stroke="black"/>
	<rect x="511.0" y="121.0" width="20.0" height="30.0" fill="none" stroke="black"/>
	<rect x="511.0" y="81.0" width="20.0" height="30.0" fill="none" stroke="black"/>
	<rect x="511.0" y="1.0" width="20.0" height="30.0" fill="none" stroke="black"/>
	<rect x="511.0" y="161.0" width="20.0" height="30.0" fill="#4c9477" stroke="black"/>
	<rect x="531.0" y="121.0" width="20.0" height="30.0" fill="none" stroke="black"/>
	<rect x="531.0" y="81.0" width="20.0" height="30.0" fill="none" stroke="black"/>
	<rect x="531.0" y="1.0" width="20.0" height="30.0" fill="none" stroke="black"/>
	<rect x="531.0" y="121.0" width="20.0" height="30.0" fill="#166c5b" stroke="black"/>
	<rect x="551.0" y="81.0" width="20.0" height="30.0" fill="none" stroke="black"/>
	<rect x="551.0" y="1.0" width="20.0" height="30.0" fill="none" stroke="black"/>
	<rect x="551.0" y="121.0" width="20.0" height="30.0" fill="#166c5b" stroke="black"/>
	<rect x="571.0" y="81.0" width="20.0" height="30.0" fill="none" stroke="black"/>
	<rect x="571.0" y="1.0" width="20.0" height="30.0" fill="none" stroke="black"/>
	<rect x="571.0" y="121.0" width="20.0" height="30.0" fill="#166c5b" stroke="black"/>
	<rect x="591.0" y="81.0" width="20.0" height="30.0" fill="none" stroke="black"/>
	<rect x="591.0" y="1.0" width="20.0" height="30.0" fill="none" stroke="black"/>
	<rect x="591.0" y="121.0" width="20.0" height="30.0" fill="#166c5b" stroke="black"/>
	<rect x="611.0" y="81.0" width="20.0" height="30.0" fill="none" stroke="black"/>
	<rect x="611.0" y="1.0" width="20.0" height="30.0" fill="none" stroke="black"/>
	<rect x="611.0" y="121.0" width="20.0" height="30.0" fill="#166c5b" stroke="black"/>
	<rect x="631.0" y="81.0" width="20.0" height="30.0" fill="none" stroke="black"/>
	<rect x="631.0" y="1.0" width="20.0" height="30.0" fill="none" stroke="black"/>
	<rect x="631.0" y="121.0" width="20.0" height="30.0" fill="#166c5b" stroke="black"/>
	<rect x="651.0" y="81.0" width="20.0" height="30.0" fill="none" stroke="black"/>
	<rect x="651.0" y="1.0" width="20.0" height="30.0" fill="none" stroke="black"/>
	<rect x="651.0" y="121.0" width="20.0" height="30.0" fill="#166c5b" stroke="black"/>
	<rect x="671.0" y="81.0" width="20.0" height="30.0" fill="none" stroke="black"/>
	<rect x="671.0" y="1.0" width="20.0" height="30.0" fill="none" stroke="black"/>
	<rect x="671.0" y="121.0" width="20.0" height="30.0" fill="#166c5b" stroke="black"/>
	<rect x="691.0" y="81.0" width="20.0" height="30.0" fill="none" stroke="black"/>
	<rect x="691.0" y="1.0" width="20.0" height="30.0" fill="none" stroke="black"/>
	<rect x="691.0" y="81.0" width="20.0" height="30.0" fill="#be00f1" stroke="black"/>
	<rect x="711.0" y="1.0" width="20.0" height="30.0" fill="none" stroke="black"/>
	<rect x="711.0" y="81.0" width="20.0" height="30.0" fill="#be00f1" stroke="black"/>
	<rect x="731.0" y="1.0" width="20.0" height="30.0" fill="none" stroke="black"/>
	<rect x="731.0" y="81.0" width="20.0" height="30.0" fill="#be00f1" stroke="black"/>
	<rect x="751.0" y="1.0" width="20.0" height="30.0" fill="none" stroke="black"/>
	<rect x="751.0" y="81.0" width="20.0" height="30.0" fill="#be00f1" stroke="black"/>
	<rect x="771.0" y="1.0" width="20.0" height="30.0" fill="none" stroke="black"/>
	<rect x="771.0" y="81.0" width="20.0" height="30.0" fill="#be00f1" stroke="black"/>
	<rect x="791.0" y="1.0" width="20.0" height="30.0" fill="none" stroke="black"/>
	<rect x="791.0" y="81.0" width="20.0" height="30.0" fill="#be00f1" stroke="black"/>
	<rect x="811.0" y="1.0" width="20.0" height="30.0" fill="none" stroke="black"/>
	<rect x="811.0" y="81.0" width="20.0" height="30.0" fill="#be00f1" stroke="black"/>
	<rect x="831.0" y="1.0" width="20.0" height="30.0" fill="none" stroke="black"/>
	<rect x="831.0" y="81.0" width="20.0" height="30.0" fill="#be00f1" stroke="black"/>
	<rect x="851.0" y="1.0" width="20.0" height="30.0" fill="none" stroke="black"/>
	<rect x="851.0" y="81.0" width="20.0" height="30.0" fill="#be00f1" stroke="black"/>
	<rect x="871.0" y="1.0" width="20.0" height="30.0" fill="none" stroke="black"/>
	<rect x="871.0" y="1.0" width="20.0" height="30.0" fill="#c8282f" stroke="black"/>
	<rect x="891.0" y="1.0" width="20.0" height="30.0" fill="#c8282f" stroke="black"/>
	<line x1="31.0" y1="296.0" x2="911.0" y2="296.0" stroke="black"/>
	<line x1="31.0" y1="290.0" x2="31.0" y2="302.0" stroke="black"/>
	<line x1="51.0" y1="290.0" x2="51.0" y2="302.0" stroke="black"/>
	<text x="41.0" y="314.0" fill="black">1</text>
	<line x1="51.0" y1="290.0" x2="51.0" y2="302.0" stroke="black"/>
	<line x1="71.0" y1="290.0" x2="71.0" y2="302.0" stroke="black"/>
	<text x="61.0" y="314.0" fill="black">2</text>
	<line x1="71.0" y1="290.0" x2="71.0" y2="302.0" stroke="black"/>
	<line x1="91.0" y1="290.0" x2="91.0" y2="302.0" stroke="black"/>
	<text x="81.0" y="314.0" fill="black">3</text>
	<line x1="91.0" y1="290.0" x2="91.0" y2="302.0" stroke="black"/>
	<line x1="111.0" y1="290.0" x2="111.0" y2="302.0" stroke="black"/>
	<text x="101.0" y="314.0" fill="black">4</text>
	<line x1="111.0" y1="290.0" x2="111.0" y2="302.0" stroke="black"/>
	<line x1="131.0" y1="290.0" x2="131.0" y2="302.0" stroke="black"/>
	<text x="121.0" y="314.0" fill="black">5</text>
	<line x1="131.0" y1="290.0" x2="131.0" y2="302.0" stroke="black"/>
	<line x1="151.0" y1="290.0" x2="151.0" y2="302.0" stroke="black"/>
	<text x="141.0" y="314.0" fill="black">6</text>
	<line x1="151.0" y1="290.0" x2="151.0" y2="302.0" stroke="black"/>
	<line x1="171.0" y1="290.0" x2="171.0" y2="302.0" stroke="black"/>
	<text x="161.0" y="314.0" fill="black">7</text>
	<line x1="171.0" y1="290.0" x2="171.0" y2="302.0" stroke="black"/>
	<line x1="191.0" y1="290.0" x2="191.0" y2="302.0" stroke="black"/>
	<text x="181.0" y="314.0" fill="black">8</text>
	<line x1="191.0" y1="290.0" x2="191.0" y2="302.0" stroke="black"/>
	<line x1="211.0" y1="290.0" x2="211.0" y2="302.0" stroke="black"/>
	<text x="201.0" y="314.0" fill="black">9</text>
	<line x1="211.0" y1="290.0" x2="211.0" y2="302.0" stroke="black"/>
	<line x1="231.0" y1="290.0" x2="231.0" y2="302.0" stroke="black"/>
	<text x="221.0" y="314.0" fill="black">10</text>
	<line x1="231.0" y1="290.0" x2="231.0" y2="302.0" stroke="black"/>
	<line x1="251.0" y1="290.0" x2="251.0" y2="302.0" stroke="black"/>
	<text x="241.0" y="314.0" fill="black">11</text>
	<line x1="251.0" y1="290.0" x2="251.0" y2="302.0" stroke="black"/>
	<line x1="271.0" y1="290.0" x2="271.0" y2="302.0" stroke="black"/>
	<text x="261.0" y="314.0" fill="black">12</text>
	<line x1="271.0" y1="290.0" x2="271.0" y2="302.0" stroke="black"/>
	<line x1="291.0" y1="290.0" x2="291.0" y2="302.0" stroke="black"/>
	<text x="281.0" y="314.0" fill="black">13</text>
	<line x1="291.0" y1="290.0" x2="291.0" y2="302.0" stroke="black"/>
	<line x1="311.0" y1="290.0" x2="311.0" y2="302.0" stroke="black"/>
	<text x="301.0" y="314.0" fill="black">14</text>
	<line x1="311.0" y1="290.0" x2="311.0" y2="302.0" stroke="black"/>
	<line x1="331.0" y1="290.0" x2="331.0" y2="302.0" stroke="black"/>
	<text x="321.0" y="314.0" fill="black">15</text>
	<line x1="331.0" y1="290.0" x2="331.0" y2="302.0" stroke="black"/>
	<line x1="351.0" y1="290.0" x2="351.0" y2="302.0" stroke="black"/>
	<text x="341.0" y="314.0" fill="black">16</text>
	<line x1="351.0" y1="290.0" x2="351.0" y2="302.0" stroke="black"/>
	<line x1="371.0" y1="290.0" x2="371.0" y2="302.0" stroke="black"/>
	<text x="361.0" y="314.0" fill="black">17</text>
	<line x1="371.0" y1="290.0" x2="371.0" y2="302.0" stroke="black"/>
	<line x1="391.0" y1="290.0" x2="391.0" y2="302.0" stroke="black"/>
	<text x="381.0" y="314.0" fill="black">18</text>
	<line x1="391.0" y1="290.0" x2="391.0" y2="302.0" stroke="black"/>
	<line x1="411.0" y1="290.0" x2="411.0" y2="302.0" stroke="black"/>
	<text x="401.0" y="314.0" fill="black">19</text>
	<line x1="411.0" y1="290.0" x2="411.0" y2="302.0" stroke="black"/>
	<line x1="431.0" y1="290.0" x2="431.0" y2="302.0" stroke="black"/>
	<text x="421.0" y="314.0" fill="black">20</text>
	<line x1="431.0" y1="290.0" x2="431.0" y2="302.0" stroke="black"/>
	<line x1="451.0" y1="290.0" x2="451.0" y2="302.0" stroke="black"/>
	<text x="441.0" y="314.0" fill="black">21</text>
	<line x1="451.0" y1="290.0" x2="451.0" y2="302.0" stroke="black"/>
	<line x1="471.0" y1="290.0" x2="471.0" y2="302.0" stroke="black"/>
	<text x="461.0" y="314.0" fill="black">22</text>
	<line x1="471.0" y1="290.0" x2="471.0" y2="302.0" stroke="black"/>
	<line x1="491.0" y1="290.0" x2="491.0" y2="302.0" stroke="black"/>
	<text x="481.0" y="314.0" fill="black">23</text>
	<line x1="491.0" y1="290.0" x2="491.0" y2="302.0" stroke="black"/>
	<line x1="511.0" y1="290.0" x2="511.0" y2="302.0" stroke="black"/>
	<text x="501.0" y="314.0" fill="black">24</text>
	<line x1="511.0" y1="290.0" x2="511.0" y2="302.0" stroke="black"/>
	<line x1="531.0" y1="290.0" x2="531.0" y2="302.0" stroke="black"/>
	<text x="521.0" y="314.0" fill="black">25</text>
	<line x1="531.0" y1="290.0" x2="531.0" y2="302.0" stroke="black"/>
	<line x1="551.0" y1="290.0" x2="551.0" y2="302.0" stroke="black"/>
	<text x="541.0" y="314.0" fill="black">26</text>
	<line x1="551.0" y1="290.0" x2="551.0" y2="302.0" stroke="black"/>
	<line x1="571.0" y1="290.0" x2="571.0" y2="302.0" stroke="black"/>
	<text x="561.0" y="314.0" fill="black">27</text>
	<line x1="571.0" y1="290.0" x2="571.0" y2="302.0" stroke="black"/>
	<line x1="591.0" y1="290.0" x2="591.0" y2="302.0" stroke="black"/>
	<text x="581.0" y="314.0" fill="black">28</text>
	<line x1="591.0" y1="290.0" x2="591.0" y2="302.0" stroke="black"/>
	<line x1="611.0" y1="290.0" x2="611.0" y2="302.0" stroke="black"/>
	<text x="601.0" y="314.0" fill="black">29</text>
	<line x1="611.0" y1="290.0" x2="611.0" y2="302.0" stroke="black"/>
	<line x1="631.0" y1="290.0" x2="631.0" y2="302.0" stroke="black"/>
	<text x="621.0" y="314.0" fill="black">30</text>
	<line x1="631.0" y1="290.0" x2="631.0" y2="302.0" stroke="black"/>
	<line x1="651.0" y1="290.0" x2="651.0" y2="302.0" stroke="black"/>
	<text x="641.0" y="314.0" fill="black">31</text>
	<line x1="651.0" y1="290.0" x2="651.0" y2="302.0" stroke="black"/>
	<line x1="671.0" y1="290.0" x2="671.0" y2="302.0" stroke="black"/>
	<text x="661.0" y="314.0" fill="black">32</text>
	<line x1="671.0" y1="290.0" x2="671.0" y2="302.0" stroke="black"/>
	<line x1="691.0" y1="290.0" x2="691.0" y2="302.0" stroke="black"/>
	<text x="681.0" y="314.0" fill="black">33</text>
	<line x1="691.0" y1="290.0" x2="691.0" y2="302.0" stroke="black"/>
	<line x1="711.0" y1="290.0" x2="711.0" y2="302.0" stroke="black"/>
	<text x="701.0" y="314.0" fill="black">34</text>
	<line x1="711.0" y1="290.0" x2="711.0" y2="302.0" stroke="black"/>
	<line x1="731.0" y1="290.0" x2="731.0" y2="302.0" stroke="black"/>
	<text x="721.0" y="314.0" fill="black">35</text>
	<line x1="731.0" y1="290.0" x2="731.0" y2="302.0" stroke="black"/>
	<line x1="751.0" y1="290.0" x2="751.0" y2="302.0" stroke="black"/>
	<text x="741.0" y="314.0" fill="black">36</text>
	<line x1="751.0" y1="290.0" x2="751.0" y2="302.0" stroke="black"/>
	<line x1="771.0" y1="290.0" x2="771.0" y2="302.0" stroke="black"/>
	<text x="761.0" y="314.0" fill="black">37</text>
	<line x1="771.0" y1="290.0" x2="771.0" y2="302.0" stroke="black"/>
	<line x1="791.0" y1="290.0" x2="791.0" y2="302.0" stroke="black"/>
	<text x="781.0" y="314.0" fill="black">38</text>
	<line x1="791.0" y1="290.0" x2="791.0" y2="302.0" stroke="black"/>
	<line x1="811.0" y1="290.0" x2="811.0" y2="302.0" stroke="black"/>
	<text x="801.0" y="314.0" fill="black">39</text>
	<line x1="811.0" y1="290.0" x2="811.0" y2="302.0" stroke="black"/>
	<line x1="831.0" y1="290.0" x2="831.0" y2="302.0" stroke="black"/>
	<text x="821.0" y="314.0" fill="black">40</text>
	<line x1="831.0" y1="290.0" x2="831.0" y2="302.0" stroke="black"/>
	<line x1="851.0" y1="290.0" x2="851.0" y2="302.0" stroke="black"/>
	<text x="841.0" y="314.0" fill="black">41</text>
	<line x1="851.0" y1="290.0" x2="851.0" y2="302.0" stroke="black"/>
	<line x1="871.0" y1="290.0" x2="871.0" y2="302.0" stroke="black"/>
	<text x="861.0" y="314.0" fill="black">42</text>
	<line x1="871.0" y1="290.0" x2="871.0" y2="302.0" stroke="black"/>
	<line x1="891.0" y1="290.0" x2="891.0" y2="302.0" stroke="black"/>
	<text x="881.0" y="314.0" fill="black">43</text>
	<line x1="891.0" y1="290.0" x2="891.0" y2="302.0" stroke="black"/>
	<line x1="911.0" y1="290.0" x2="911.0" y2="302.0" stroke="black"/>
	<text x="901.0" y="314.0" fill="black">44</text>
</svg>
